<svg width="971" height="300" viewBox="0 0 971 300" fill="none" xmlns="http://www.w3.org/2000/svg">
<g id="back1">
<mask id="mask0" mask-type="alpha" maskUnits="userSpaceOnUse" x="0" y="0" width="300" height="300">
<g id="Vector">
<path d="M252.163 299.983C244.55 299.983 236.918 297.075 231.103 291.28L150.001 210.193L68.9136 291.28C57.2692 302.905 38.3849 302.905 26.7561 291.28L8.72158 273.242C-2.90719 261.616 -2.90719 242.713 8.72158 231.085L89.8055 150.001L8.72158 68.9136C-2.90719 57.2692 -2.90719 38.3662 8.72158 26.7561L26.7561 8.72158C38.3662 -2.88852 57.2692 -2.90719 68.898 8.72158L150.001 89.8055L231.085 8.72158C242.748 -2.90719 261.632 -2.90719 273.242 8.72158L291.28 26.7561C302.905 38.3849 302.905 57.2879 291.28 68.9136L210.193 150.001L291.28 231.085C302.905 242.713 302.905 261.616 291.28 273.242L273.242 291.28C267.431 297.075 259.799 299.983 252.163 299.983ZM150.001 179.409C153.384 179.409 156.631 180.75 159.009 183.147L249.104 273.242C250.772 274.892 253.558 274.892 255.207 273.242L273.242 255.207C274.91 253.558 274.892 250.753 273.242 249.088L183.147 159.009C178.167 154.028 178.167 145.954 183.147 140.974L273.242 50.879C274.892 49.2293 274.91 46.4248 273.242 44.7751L255.207 26.7561C253.542 25.1065 250.772 25.1065 249.088 26.7561L159.009 116.851C154.234 121.629 145.767 121.629 140.974 116.851L50.879 26.7561C49.2137 25.1065 46.4248 25.1065 44.7751 26.7561L26.7561 44.7938C25.0909 46.4404 25.1065 49.2449 26.7561 50.9132L116.851 140.99C121.831 145.97 121.831 154.047 116.851 159.027L26.7561 249.122C25.1065 250.772 25.0909 253.576 26.7561 255.223L44.7938 273.261C46.4591 274.91 49.2293 274.91 50.9132 273.261L140.99 183.166C143.371 180.75 146.617 179.409 150.001 179.409Z" fill="black"/>
<path d="M252.163 299.983C244.55 299.983 236.918 297.075 231.103 291.28L150.001 210.193L68.9136 291.28C57.2692 302.905 38.3849 302.905 26.7561 291.28L8.72158 273.242C-2.90719 261.616 -2.90719 242.713 8.72158 231.085L89.8055 150.001L8.72158 68.9136C-2.90719 57.2692 -2.90719 38.3662 8.72158 26.7561L26.7561 8.72158C38.3662 -2.88852 57.2692 -2.90719 68.898 8.72158L150.001 89.8055L231.085 8.72158C242.748 -2.90719 261.632 -2.90719 273.242 8.72158L291.28 26.7561C302.905 38.3849 302.905 57.2879 291.28 68.9136L210.193 150.001L291.28 231.085C302.905 242.713 302.905 261.616 291.28 273.242L273.242 291.28C267.431 297.075 259.799 299.983 252.163 299.983ZM150.001 179.409C153.384 179.409 156.631 180.75 159.009 183.147L249.104 273.242C250.772 274.892 253.558 274.892 255.207 273.242L273.242 255.207C274.91 253.558 274.892 250.753 273.242 249.088L183.147 159.009C178.167 154.028 178.167 145.954 183.147 140.974L273.242 50.879C274.892 49.2293 274.91 46.4248 273.242 44.7751L255.207 26.7561C253.542 25.1065 250.772 25.1065 249.088 26.7561L159.009 116.851C154.234 121.629 145.767 121.629 140.974 116.851L50.879 26.7561C49.2137 25.1065 46.4248 25.1065 44.7751 26.7561L26.7561 44.7938C25.0909 46.4404 25.1065 49.2449 26.7561 50.9132L116.851 140.99C121.831 145.97 121.831 154.047 116.851 159.027L26.7561 249.122C25.1065 250.772 25.0909 253.576 26.7561 255.223L44.7938 273.261C46.4591 274.91 49.2293 274.91 50.9132 273.261L140.99 183.166C143.371 180.75 146.617 179.409 150.001 179.409Z" stroke="black"/>
</g>
</mask>
<g mask="url(#mask0)">
<g id="Rectangle 1">
<rect width="971" height="300" fill="#E075F5"/>
<rect width="971" height="300" stroke="black"/>
</g>
</g>
<mask id="mask1" mask-type="alpha" maskUnits="userSpaceOnUse" x="671" y="0" width="300" height="300">
<path id="Vector_2" d="M821 0C738.157 0 671 67.1571 671 150C671 232.843 738.157 300 821 300C903.843 300 971 232.843 971 150C971 67.1571 903.842 0 821 0ZM821 262.5C758.868 262.5 708.5 212.132 708.5 150C708.5 87.8685 758.868 37.5002 821 37.5002C883.132 37.5002 933.5 87.8685 933.5 150C933.5 212.132 883.132 262.5 821 262.5Z" fill="black"/>
</mask>
<g mask="url(#mask1)">
<g id="Rectangle 2">
<rect width="971" height="300" fill="#E075F5"/>
<rect width="971" height="300" stroke="black"/>
</g>
</g>
</g>
</svg>
